<svg xmlns="http://www.w3.org/2000/svg" width="1200" height="440" viewBox="0 0 1200 440" font-family="-apple-system,BlinkMacSystemFont,'Segoe UI',Helvetica,Arial,sans-serif">
  <rect x="0" y="0" width="1200" height="440" fill="#0d1117"/>

  <!-- breadcrumb -->
  <text x="24" y="30" fill="#8b949e" font-size="13">docs / architecture-overview.html</text>

  <!-- injected: Preview tab (selected) -->
  <rect x="24" y="48" width="104" height="32" rx="6" fill="#21262d" stroke="#30363d"/>
  <text x="76" y="69" fill="#e6edf3" font-size="12" font-weight="600" text-anchor="middle">Preview</text>

  <!-- native: Code | Blame -->
  <rect x="128" y="48" width="176" height="32" rx="6" fill="none" stroke="#30363d"/>
  <line x1="216" y1="52" x2="216" y2="76" stroke="#30363d"/>
  <text x="172" y="69" fill="#8b949e" font-size="12" text-anchor="middle">Code</text>
  <text x="260" y="69" fill="#8b949e" font-size="12" text-anchor="middle">Blame</text>

  <!-- native: size, Raw button -->
  <text x="1176" y="69" fill="#8b949e" font-size="12" text-anchor="end">51.3 KB</text>
  <rect x="1032" y="48" width="52" height="32" rx="6" fill="none" stroke="#30363d"/>
  <text x="1058" y="69" fill="#8b949e" font-size="11" text-anchor="middle">Raw</text>
  <rect x="1088" y="48" width="32" height="32" rx="6" fill="none" stroke="#30363d"/>
  <rect x="1124" y="48" width="32" height="32" rx="6" fill="none" stroke="#30363d"/>

  <!-- callout -->
  <line x1="76" y1="82" x2="76" y2="112" stroke="#db6d28" stroke-dasharray="3 2"/>
  <text x="24" y="128" fill="#db6d28" font-size="12">Preview tab &amp; rendered pane — added by GH Reloaded</text>

  <!-- rendered preview panel -->
  <rect x="24" y="150" width="1152" height="266" rx="8" fill="#0b0e14" stroke="#21262d"/>

  <!-- mock rendered page content -->
  <text x="56" y="194" fill="#e6edf3" font-size="20" font-weight="700">Architecture Overview</text>
  <rect x="56" y="210" width="480" height="10" rx="5" fill="#30363d"/>
  <rect x="56" y="228" width="360" height="10" rx="5" fill="#30363d"/>

  <g>
    <rect x="56" y="254" width="110" height="24" rx="12" fill="#1f6feb"/>
    <text x="111" y="270" fill="#ffffff" font-size="11" font-weight="600" text-anchor="middle">Runtime → X</text>
    <rect x="178" y="254" width="150" height="24" rx="12" fill="#21262d" stroke="#30363d"/>
    <text x="253" y="270" fill="#8b949e" font-size="11" text-anchor="middle">Isolation → per-tenant</text>
  </g>

  <!-- mock diagram box -->
  <rect x="56" y="298" width="1064" height="94" rx="8" fill="#161b22" stroke="#21262d"/>
  <g stroke="#30363d" fill="none">
    <rect x="88" y="322" width="96" height="40" rx="6"/>
    <rect x="256" y="322" width="96" height="40" rx="6"/>
    <rect x="424" y="322" width="96" height="40" rx="6"/>
  </g>
  <g stroke="#8b949e" stroke-width="1.4" fill="none">
    <line x1="184" y1="342" x2="256" y2="342" marker-end="url(#arrow)"/>
    <line x1="352" y1="342" x2="424" y2="342" marker-end="url(#arrow)"/>
  </g>
  <text x="136" y="347" fill="#e6edf3" font-size="11" text-anchor="middle">Client</text>
  <text x="304" y="347" fill="#e6edf3" font-size="11" text-anchor="middle">API</text>
  <text x="472" y="347" fill="#e6edf3" font-size="11" text-anchor="middle">Store</text>
  <defs>
    <marker id="arrow" markerWidth="8" markerHeight="8" refX="6" refY="3" orient="auto">
      <path d="M0,0 L6,3 L0,6" fill="#8b949e"/>
    </marker>
  </defs>
</svg>
